<svg xmlns="http://www.w3.org/2000/svg" width="95" height="87" viewBox="0 0 95 87">
<defs><style>.cls-1 {fill: #1c1507;fill-rule: evenodd;}</style></defs>
  <path id="COLOR_ICONO" data-name="COLOR ICONO" class="cls-1" d="M930.924,699a18.623,18.623,0,0,1-6.987-12.074,1.856,1.856,0,0,0-3.676.513,22.318,22.318,0,0,0,8.381,14.48A1.853,1.853,0,1,0,930.924,699m21.59-59.524a18.71,18.71,0,0,1,13.976,0,1.852,1.852,0,1,0,1.392-3.433,22.461,22.461,0,0,0-16.761,0,1.852,1.852,0,1,0,1.393,3.433m24.8,70.827a26.057,26.057,0,0,1-14.916-4.7,29.5,29.5,0,0,0,8.977-21.217c0-.2,0-0.408-0.009-0.614A29.726,29.726,0,0,0,988.84,661.16a25.9,25.9,0,0,1-11.524,49.14M959.5,703.245a25.817,25.817,0,0,1-8.155-18.14,29.944,29.944,0,0,0,16.311,0,25.814,25.814,0,0,1-8.156,18.14M941.688,710.3a25.9,25.9,0,0,1-11.524-49.14,29.717,29.717,0,0,0,17.471,22.612c0,0.206-.01.412-0.01,0.614A29.506,29.506,0,0,0,956.6,705.6a26.061,26.061,0,0,1-14.915,4.7M962.4,663.171a26.067,26.067,0,0,1,22.894-3.454,26,26,0,0,1-14.267,20.131,29.767,29.767,0,0,0-8.627-16.677m-14.422,16.677a26,26,0,0,1-14.267-20.131,26.067,26.067,0,0,1,22.894,3.454,29.757,29.757,0,0,0-8.627,16.677M959.5,665.529a26.022,26.022,0,0,1,7.98,15.76,26.174,26.174,0,0,1-15.959,0,26.029,26.029,0,0,1,7.979-15.76m0-34.823a25.981,25.981,0,0,1,25.97,25.195A29.81,29.81,0,0,0,959.5,660.7a29.806,29.806,0,0,0-25.968-4.794A25.98,25.98,0,0,1,959.5,630.706m42.149,36.713a29.588,29.588,0,0,0-12.468-10.186c0-.2.011-0.41,0.011-0.612a29.691,29.691,0,0,0-59.381,0c0,0.2,0,.408.009,0.612a29.632,29.632,0,1,0,29.68,50.844,29.707,29.707,0,0,0,47.509-23.691,29.333,29.333,0,0,0-5.36-16.967m-80.075,13.952a1.852,1.852,0,1,0-.679-2.528,1.861,1.861,0,0,0,.679,2.528m60.263,19.585a1.839,1.839,0,1,0,1.86,1.839,1.851,1.851,0,0,0-1.86-1.839" transform="translate(-912 -627)"/>
</svg>
