<svg xmlns="http://www.w3.org/2000/svg" width="101.469" height="83.75" viewBox="0 0 101.469 83.75">
<defs><style>.cls-1 {fill: #1c1507;fill-rule: evenodd;}</style></defs>
  <path id="FORMA_ICONO" data-name="FORMA ICONO" class="cls-1" d="M599.109,717.684c-0.184,0-.365,0-0.549,0-27.692-.329-51.569-21.153-55.542-48.439a2.122,2.122,0,1,1,4.2-.614c3.674,25.237,25.77,44.5,51.393,44.8a40.506,40.506,0,0,0,29.22-11.876l0.17-.171a41.622,41.622,0,0,0,12.231-29.635,33.56,33.56,0,0,0-33.5-33.556h-0.017a26.914,26.914,0,0,0-26.9,26.965,21.771,21.771,0,0,0,21.732,21.768h0.015a17.532,17.532,0,0,0,17.5-17.546,14.219,14.219,0,0,0-14.2-14.222h-0.015a11.492,11.492,0,0,0-11.486,11.517,9.4,9.4,0,0,0,9.379,9.395h0a7.644,7.644,0,0,0,7.643-7.66,2.122,2.122,0,0,1,2.119-2.128h0a2.124,2.124,0,0,1,2.122,2.122,11.893,11.893,0,0,1-11.9,11.917,13.659,13.659,0,0,1-13.619-13.642,15.743,15.743,0,0,1,15.729-15.772h0.019a18.469,18.469,0,0,1,18.439,18.47,21.781,21.781,0,0,1-21.746,21.8h-0.019a26.016,26.016,0,0,1-25.972-26.016,31.165,31.165,0,0,1,31.148-31.22h0.018a37.809,37.809,0,0,1,37.742,37.805A45.847,45.847,0,0,1,631,704.388l-0.179.179a44.775,44.775,0,0,1-31.713,13.117" transform="translate(-543 -633.938)"/>
</svg>
