<svg xmlns="http://www.w3.org/2000/svg" width="31" height="31" viewBox="0 0 31 31">
<defs><style>.cls-1 {fill-rule: evenodd;}</style></defs>
  <path id="INSTAGRAM" class="cls-1" d="M302.078,926.428a6.577,6.577,0,0,0-6.6,6.54l-0.058,12.961a6.574,6.574,0,0,0,6.54,6.6l12.962,0.058a6.576,6.576,0,0,0,6.6-6.54l0.056-12.961a6.577,6.577,0,0,0-6.54-6.6ZM314.913,955l-12.962-.055a8.995,8.995,0,0,1-8.945-9.027l0.057-12.961a9,9,0,0,1,9.025-8.946l12.963,0.058A8.995,8.995,0,0,1,324,933.094l-0.057,12.964A8.992,8.992,0,0,1,314.913,955m-6.386-21.415a5.921,5.921,0,1,0,5.9,5.947,5.925,5.925,0,0,0-5.9-5.947m-0.064,14.258a8.338,8.338,0,1,1,8.376-8.3,8.346,8.346,0,0,1-8.376,8.3M317,929.878a1.208,1.208,0,1,1-1.214,1.2,1.206,1.206,0,0,1,1.214-1.2" transform="translate(-293 -924)"/>
</svg>
