<svg xmlns="http://www.w3.org/2000/svg" width="99.999" height="96.424" viewBox="0 0 28 26.999">
<defs><style>.cls-1 {fill-rule: evenodd;}</style></defs>
  <path id="IN" class="cls-1" d="M317.106,983.379a5.95,5.95,0,0,0-5.408,3.007v-2.578h-6c0.078,1.707,0,18.212,0,18.212h6V991.849a4.158,4.158,0,0,1,.2-1.476,3.289,3.289,0,0,1,3.08-2.217c2.171,0,3.039,1.672,3.039,4.119v9.745h6V991.575C324.017,985.983,321.056,983.379,317.106,983.379ZM311.7,986.45h-0.039c0.013-.022.028-0.041,0.039-0.063v0.063Zm-15.325-2.642h6v18.212h-6V983.808Zm3.041-8.782a3.153,3.153,0,1,0-.079,6.293h0.039A3.154,3.154,0,1,0,299.413,975.026Z" transform="translate(-296.031 -975.031)"/>
</svg>
