<svg xmlns="http://www.w3.org/2000/svg" width="27.97" height="18.031" viewBox="0 0 27.97 18.031">
  <defs>
    <style>.cls-1 {fill-rule: evenodd;}</style>
  </defs>
  <path id="MAIL" class="cls-1" d="M1578.54,101.513a2.093,2.093,0,0,1,.7-0.125h23.92a2.093,2.093,0,0,1,.7.125l-10.71,9.543a2.973,2.973,0,0,1-3.9,0Zm26.35,16.958a1.868,1.868,0,0,0,.29-0.989V103.3a1.775,1.775,0,0,0-.15-0.727l-10.03,8.93ZM1594.1,112.3a4.65,4.65,0,0,1-5.8,0l-9.85,6.943a2.1,2.1,0,0,0,.79.153h23.92a2.1,2.1,0,0,0,.79-0.153Zm-16.73-9.725a1.775,1.775,0,0,0-.15.727v14.178a1.868,1.868,0,0,0,.29.989l9.89-6.964Z" transform="translate(-1577.22 -101.375)"/>
</svg>
