<svg xmlns="http://www.w3.org/2000/svg" width="26.999" height="55.506" viewBox="0 0 11.718 24.09">
  <defs>
    <style>
      .cls-1 {
        fill-rule: evenodd;
      }
    </style>
  </defs>
  <path id="TEL_ICONO" data-name="TEL ICONO" class="cls-1" d="M778.06,7197.7a2.583,2.583,0,0,0-.371-1.07c-0.23-.52-1.369-3.06-1.618-3.48a0.819,0.819,0,0,0-1.035-.56c-0.58.15-2.046,0.36-2.487,0.42a0.81,0.81,0,0,1-.922-0.63,13.934,13.934,0,0,1-1.542-4.51,14.96,14.96,0,0,1,.052-4.43,0.7,0.7,0,0,1,.822-0.62c0.319-.02.764-0.11,1.144-0.16a3.223,3.223,0,0,0,.924-0.29,0.864,0.864,0,0,0,.526-0.68c0.063-.27.859-2.78,1.176-3.8s-0.113-1.18-.341-1.37-0.46-.44-0.72-0.66a1.873,1.873,0,0,0-1.435-.42,5.448,5.448,0,0,0-4.03,1.96,9.351,9.351,0,0,0-1.72,5.22c-0.019.41-.86,6.43,1.814,11.29s3.1,4.37,3.869,4.91,3.074,1.06,4.145.46a4.031,4.031,0,0,0,1.749-1.58" transform="translate(-766.344 -7175.44)"/>
</svg>
